<?xml version="1.0" standalone="no"?>
<!DOCTYPE svg PUBLIC "-//W3C//DTD SVG 20010904//EN"
 "http://www.w3.org/TR/2001/REC-SVG-20010904/DTD/svg10.dtd">
<svg version="1.0" xmlns="http://www.w3.org/2000/svg"
 width="256.000000pt" height="256.000000pt" viewBox="0 0 256.000000 256.000000"
 preserveAspectRatio="xMidYMid meet">
<metadata>
Created by potrace 1.11, written by Peter Selinger 2001-2013
</metadata>
<g transform="translate(0.000000,256.000000) scale(0.100000,-0.100000)"
fill="#000000" stroke="none">
<path d="M605 2370 c-18 -20 -18 -24 8 -133 50 -211 87 -498 87 -674 0 -78 13
-103 54 -103 39 0 46 18 46 125 0 238 -81 745 -127 790 -20 21 -47 19 -68 -5z"/>
<path d="M778 1400 c-153 -18 -242 -61 -277 -132 -57 -119 3 -233 145 -274
l52 -15 -5 -42 c-10 -81 -52 -329 -56 -333 -2 -3 -16 0 -31 6 -34 13 -117 13
-149 1 -70 -27 -137 -120 -137 -191 0 -95 97 -190 193 -190 66 0 149 79 178
169 6 20 15 39 18 44 4 4 46 -10 92 -32 223 -103 515 -171 557 -129 17 17 15
53 -5 70 -10 8 -57 20 -105 26 -48 7 -125 23 -172 37 -83 24 -313 118 -330
135 -8 8 1 75 50 388 l5 32 87 -7 c48 -5 204 -8 347 -7 218 0 282 4 394 22
107 18 136 19 143 10 51 -80 23 -317 -50 -427 -38 -56 -122 -124 -204 -164
-70 -34 -90 -58 -77 -94 14 -38 44 -37 125 3 92 46 176 113 226 179 89 118
134 355 93 491 -8 27 -15 49 -15 50 0 0 26 7 58 14 31 7 119 32 194 57 121 38
139 47 144 68 8 31 0 51 -23 63 -13 7 -49 0 -136 -29 -65 -21 -155 -48 -199
-60 l-82 -20 -20 28 c-11 15 -47 56 -80 91 -69 73 -147 115 -251 137 -146 30
-533 44 -697 25z m447 -101 c192 -12 278 -29 346 -66 55 -29 145 -121 132
-134 -4 -4 -62 -16 -128 -26 -132 -19 -517 -25 -677 -10 l-88 9 0 56 c0 81
-38 115 -82 75 -13 -11 -18 -30 -18 -65 0 -42 -3 -48 -20 -48 -29 0 -96 36
-104 55 -11 30 -6 62 15 89 50 64 280 88 624 65z m-641 -789 c32 -12 32 -31 2
-96 -40 -86 -91 -101 -141 -42 -29 34 -31 48 -10 88 28 55 86 74 149 50z"/>
</g>
</svg>
