<svg xmlns="http://www.w3.org/2000/svg" width="46.08" height="46.08" viewBox="0 0 48 48"><mask id="shape"><rect width="100%" height="100%" fill="#fff"/><path fill="none" stroke="#000" stroke-width="1.5" d="M 26.33,10.33 C 26.33,10.33 37.67,10.33 37.67,10.33 37.67,10.33 37.67,21.67 37.67,21.67M 18.33,29.67 C 18.33,29.67 37.67,10.33 37.67,10.33M 24.00,14.67 C 24.00,14.67 10.67,14.67 10.67,14.67 10.67,14.67 10.67,37.33 10.67,37.33 10.67,37.33 33.33,37.33 33.33,37.33 33.33,37.33 33.33,24.00 33.33,24.00"/></mask><path id="Unnamed copy #1" fill="#FFF" stroke="none" d="M 24 0 A 24 24 0 0 1 24 48 A 24 24 0 0 1 24 0" mask="url(#shape)"/></svg>