<?xml version="1.0" encoding="UTF-8" standalone="no"?>
<!DOCTYPE svg PUBLIC "-//W3C//DTD SVG 20010904//EN"
              "http://www.w3.org/TR/2001/REC-SVG-20010904/DTD/svg10.dtd">

<svg xmlns="http://www.w3.org/2000/svg"
     width="0.48in" height="0.48in"
     viewBox="0 0 48 48">
  <path id="Unnamed copy #1"
        fill="#164693" stroke="none"
        d="M 24 0
           A 24 24 0 0 1 24 48
           A 24 24 0 0 1 24 0" />
  <path id="Selection"
        fill="#FFFFFF" stroke="none"
        d="M 26,4
           A 1 1 0 0 1 26 6
           A 1 1 0 0 1 26 4
           M 24,11
           A 1 1 0 0 1 24 13
           A 1 1 0 0 1 24 11
           M 22,20
           A 1 1 0 0 1 22 22
           A 1 1 0 0 1 22 20
           M 26,22
           A 1 1 0 0 1 26 24
           A 1 1 0 0 1 26 22" />
  <mask id="shape">
    <rect fill="#FFFFFF" width="100%" height="100%"/>
    <path fill="#000000" stroke="none"
          d="M 20,28
           A 1 1 0 0 1 20 30
           A 1 1 0 0 1 20 28
           M 18,32
           A 1 1 0 0 1 18 34
           A 1 1 0 0 1 18 32
           M 28,30
           A 1 1 0 0 1 28 32
           A 1 1 0 0 1 28 30" />
  </mask>
  <path id="Selection"
        fill="#FFFFFF" stroke="#FFFFFF" stroke-width="1" stroke-linejoin="round"  mask="url(#shape)"
        d="M 24.00,35.00
           C 24.00,35.00 13.01,35.02 13.01,35.02
             13.01,35.02 13.03,33.99 13.03,33.99
             13.03,33.99 18.00,25.67 18.00,25.67
             20.00,26.67 22.00,26.67 24.00,25.67M 24.00,35.00
           C 24.00,35.00 34.99,35.02 34.99,35.02
             34.99,35.02 34.97,33.99 34.97,33.99
             34.97,33.99 30.00,25.67 30.00,25.67
             28.00,24.67 26.00,24.67 24.00,25.67M 24.00,8.67" />
  <path id="Selection"
        fill="none" stroke="#FFFFFF" stroke-width="1.5" stroke-linejoin="round"
        d="M 24.00,8.67
           C 24.00,8.67 21.00,8.70 21.00,8.70
             21.00,8.70 20.99,15.26 20.99,15.26
             20.99,15.26 10.68,32.96 10.68,32.96
             10.68,32.96 10.69,33.76 10.69,35.39
             10.72,36.62 11.30,37.26 12.67,37.31
             12.67,37.31 24.00,37.31 24.00,37.31
           M 24.00,8.67
           C 24.00,8.67 27.00,8.70 27.00,8.70
             27.00,8.70 27.01,15.26 27.01,15.26
             27.01,15.26 37.32,32.96 37.32,32.96
             37.32,32.96 37.31,33.76 37.31,35.39
             37.28,36.62 36.70,37.26 35.33,37.31
             35.33,37.31 24.00,37.31 24.00,37.31" />
</svg>
