<svg xmlns="http://www.w3.org/2000/svg" width="46.08" height="46.08" viewBox="0 0 48 48"><path id="Unnamed copy #1" fill="#164693" stroke="none" d="M 24 0 A 24 24 0 0 1 24 48 A 24 24 0 0 1 24 0"/><path id="Selection" fill="none" stroke="#FFF" stroke-width="1" d="M 28,12 L 28,8 20,8 20,12 M 6,20 L 22,20 M 42,20 L 26,20 M 22,18.5 L 22,22 26,22 26,18.5 Z"/><path id="Selection copy" fill="none" stroke="#FFF" stroke-width="1.5" d="M 9,12 L 39,12 A 3 3 0 0 1 42 15 L 42,32 A 3 3 0 0 1 39 35 L 9,35 A 3 3 0 0 1 6 32 L 6,15 A 3 3 0 0 1 9 12"/></svg>