<svg xmlns="http://www.w3.org/2000/svg" width="46.08" height="46.08" viewBox="0 0 48 48"><path id="Unnamed copy #1" fill="#164693" stroke="none" d="M 24 0 A 24 24 0 0 1 24 48 A 24 24 0 0 1 24 0"/><path id="Selection" fill="none" stroke="#FFF" stroke-linecap="round" stroke-linejoin="round" stroke-width="1.5" d="M 15.63,7.61 C 15.63,7.61 17.40,13.18 17.40,19.91M 17.54,25.00 C 17.60,27.46 16.51,33.23 16.17,34.62 15.83,36.02 15.10,38.15 13.56,38.12 12.02,38.10 11.07,36.75 11.38,35.62 11.69,34.48 12.99,33.68 14.15,33.82 15.30,33.96 17.88,35.36 18.59,35.59 19.30,35.82 22.10,37.29 26.46,37.63M 29.11,37.52 C 30.19,37.12 32.76,35.88 33.78,34.11 34.81,32.35 35.32,29.48 34.61,27.75 33.90,26.02 32.50,23.80 29.91,22.92 27.31,22.04 19.22,22.07 17.59,22.32 15.97,22.58 13.86,22.86 13.86,24.83 13.86,26.78 16.51,26.98 17.45,27.10 18.39,27.21 24.09,27.69 27.66,27.44 31.22,27.18 35.81,26.50 40.88,24.74"/></svg>