<svg xmlns="http://www.w3.org/2000/svg" width="46.08" height="46.08" viewBox="0 0 48 48"><path id="Unnamed copy #1" fill="#164693" stroke="none" d="M 24 0 A 24 24 0 0 1 24 48 A 24 24 0 0 1 24 0"/><path id="Selection #2" fill="none" stroke="#FFF" stroke-linecap="round" stroke-linejoin="round" stroke-width="1.5" d="M 35.72,28.42 C 35.72,28.42 30.25,13.01 30.25,13.01 30.25,13.01 34.82,12.65 34.82,12.65M 13.29,28.47 C 13.29,28.47 24.00,28.48 24.00,28.48 24.00,28.48 31.67,17.27 31.67,17.27 31.67,17.27 20.05,18.49 20.05,18.49 20.05,18.49 13.29,28.47 13.29,28.47 Z M 24.00,28.49 C 24.00,28.49 17.85,13.01 17.85,13.01M 15.32,13.27 C 15.32,13.27 20.68,12.76 20.68,12.76M 34.19,21.13 C 25.50,23.27 26.87,35.29 35.18,35.81 45.03,36.41 45.85,21.67 36.16,21.13 35.39,21.02 34.95,21.09 34.19,21.13 Z M 11.84,21.13 C 3.15,23.27 4.52,35.29 12.82,35.81 22.68,36.41 23.50,21.67 13.81,21.13 13.03,21.02 12.59,21.09 11.84,21.13 Z"/></svg>