<svg xmlns="http://www.w3.org/2000/svg" width="46.08" height="46.08" viewBox="0 0 48 48"><path id="Unnamed copy #1" fill="#164693" stroke="none" d="M 24 0 A 24 24 0 0 1 24 48 A 24 24 0 0 1 24 0"/><path id="Selection" fill="none" stroke="#FFF" stroke-width="1.5" d="M 8.67,13.06 C 8.67,13.06 24.17,24.00 24.17,24.00 24.17,24.00 39.72,13.00 39.72,13.00M 8.61,34.98 C 8.61,34.98 18.02,19.67 18.02,19.67M 39.72,35.00 C 39.72,35.00 30.32,19.66 30.32,19.66M 8.61,13.00 C 8.61,13.00 8.61,35.00 8.61,35.00 8.61,35.00 39.72,35.00 39.72,35.00 39.72,35.00 39.72,13.00 39.72,13.00 39.72,13.00 8.61,13.00 8.61,13.00 Z"/></svg>