<svg xmlns="http://www.w3.org/2000/svg" width="46.08" height="46.08" viewBox="0 0 144 144"><path id="Selection #2" fill="none" stroke="#000" stroke-width="6" d="M 68.00,4.47 C 55.13,7.61 46.99,20.21 42.69,32.00 34.03,55.80 33.75,84.97 41.67,109.00 46.43,123.46 58.04,142.96 76.00,139.53 88.07,137.23 96.83,123.73 100.94,113.00 110.29,88.54 110.27,57.66 101.66,33.00 96.51,18.27 85.65,2.05 68.00,4.47 Z"/><mask id="shape"><path fill="#FFF" stroke="none" d="M 72,4 A 68 68 0 0 1 72 140 A 68 68 0 0 1 72 4"/></mask><path id="Selection #1" fill="none" stroke="#000" stroke-width="6" d="M 4.21,15.67 C 9.10,20.46 19.38,23.95 26.00,25.50 55.28,33.05 89.76,32.93 119.00,25.50 125.48,23.69 136.17,19.86 140.61,14.82 M 4.21,55.67 C 9.10,60.46 19.38,63.95 26.00,65.50 55.28,73.05 89.76,72.93 119.00,65.50 125.48,63.69 136.17,59.86 140.61,54.82 M 4.21,95.67 C 9.10,100.46 19.38,103.95 26.00,105.50 55.28,113.05 89.76,112.93 119.00,105.50 125.48,103.69 136.17,99.86 140.61,94.82" mask="url(#shape)"/><path id="Selection" fill="none" stroke="#000" stroke-width="8" d="M 64.00,4.21 C 41.29,8.15 23.65,18.24 12.31,39.00 -11.73,83.04 18.81,139.40 70.00,140.00 80.84,140.12 91.11,138.25 101.00,133.69 109.06,129.97 117.72,123.83 123.38,117.00 153.33,80.90 141.63,26.06 97.00,8.61 89.67,5.75 80.87,4.03 73.00,4.21 73.00,4.21 64.00,4.21 64.00,4.21 Z"/></svg>